<svg xmlns="http://www.w3.org/2000/svg" xml:space="preserve" id="Logo" x="0" y="0" style="enable-background:new 0 0 236 80" version="1.1" viewBox="0 0 236 80"><style>.st0{fill:#fff}</style><g id="Text" transform="translate(0 7)"><path id="Shape" d="M20.2 11.4c-.4 5.5-4.2 11-11.8 11H0L1.9.8h8.5c7.4 0 10.2 5.2 9.8 10.6zm-15.8 7h4.4c4.9 0 7.2-3.6 7.4-7.1.2-3.3-1.5-6.7-6.2-6.7H5.6L4.4 18.4z" class="st0"/><path d="M44.4 11.7c-.5 5.6-4.4 11.2-12.1 11.2s-10.6-5.5-10.1-11.1S26.9.3 34.3.3 45 6 44.4 11.7zm-18.1.1c-.2 3.6 1.4 7.3 6.4 7.3s7.3-3.8 7.7-7.4C40.8 8.2 39.1 4 34 4s-7.5 4.1-7.7 7.8z" class="st0"/><path id="Path" d="M62.6.7h4.1l-1.9 21.7h-2.6l-10-14.6-1.3 14.6h-4.1L48.7.8H52l9.4 13.4z" class="st0"/><path d="M84.2 18.3H72.9l-2.2 4.1h-4.4L77.8.8h4.5l7.8 21.6h-4.4l-1.5-4.1zm-4.5-13-4.8 9.2h8l-3.2-9.2zM95.6 4.5h-6.9L89 .8h17.8l-.3 3.7h-6.9l-1.5 17.9H94zM107.4 22.4 109.3.8h4l-1.9 21.6zM138.1 11.7c-.6 5.6-4.5 11.2-12.1 11.2s-10.6-5.5-10.1-11.1S120.5.3 128 .3s10.6 5.7 10.1 11.4zm-18.2.1c-.2 3.6 1.4 7.3 6.5 7.3s7.3-3.8 7.7-7.4c.4-3.6-1.3-7.8-6.4-7.8s-7.6 4.2-7.8 7.9zM156.2.7h4.1l-1.9 21.7h-2.5L145.8 7.8l-1.3 14.6h-4L142.3.8h3.3l9.5 13.4zM53.6 48.9H42.3L40.1 53h-4.4l11.6-21.7h4.4L59.5 53H55l-1.4-4.1zm-4.6-13-4.8 9.2h8L49 35.9zM67.6 31.3 66 49.2h11.1l-.3 3.8H61.6l1.9-21.7zM95.8 53H79.6c.6-7.2 1.3-14.5 1.9-21.7h16.2l-.3 4H85.2l-.4 5h11.7l-.3 3.8H84.4L84 49h12.1l-.3 4zM118.1 53h-4.8l-5.7-7.2h-3.9L103 53h-4l1.9-21.7h10.3c5.1 0 7.5 3.4 7.2 7.2-.1 3.4-2.7 6.3-6.1 6.8l5.9 7.4-.1.3zm-13.5-17.9L104 42h6.2c1 .1 2-.3 2.7-.9.8-.7 1.2-1.6 1.3-2.6.1-.9-.2-1.9-.8-2.6-.7-.7-1.6-1-2.6-.9h-6.2zM127.9 35H121l.3-3.7h17.8l-.3 3.7h-6.9l-1.5 18h-4.1zM154.5 36.5c-.6-1.2-2.6-2.4-4.9-2.4-3 0-4.6 1.3-4.7 2.9-.2 1.9 2 2.4 4.6 2.7 4.5.6 8.6 1.7 8.1 6.9-.4 4.8-4.9 6.9-9.7 6.9-4.4 0-7.7-1.4-9-5.3l3.6-1.8c.8 2.4 3.2 3.4 5.8 3.4 2.6 0 5.1-.9 5.2-3.2.2-2-1.9-2.9-4.7-3.2-4.4-.5-8.3-1.7-7.9-6.6.4-4.5 4.9-6.3 8.9-6.3 3.4 0 6.8 1 8.1 4.3l-3.4 1.7z" class="st0"/></g><g id="Alert" transform="translate(166)"><path id="D" d="M68.6 17.7 54.4 1.2C53.7.4 52.8 0 51.8 0H9.4C7.6 0 6.2 1.3 6 3L.9 61c-.1.9.2 1.9.9 2.6s1.5 1.1 2.5 1.1h8.3l-1.3 15.1 16.4-15.1h18.6c.9 0 1.7-.3 2.3-1l17.5-17c.6-.6.9-1.3 1-2.1l2.1-24.5c.2-.8-.1-1.7-.6-2.4zM55.6 40c-.1.8-.4 1.6-1 2.1l-10.1 9.7c-.6.6-1.5.9-2.3.9H17.4c-1.5 0-2.8-1-3.2-2.4-.2-.4-.2-.8-.2-1.2l3-34c.1-1.7 1.6-3.1 3.3-3.1h25.2c1 0 1.9.4 2.5 1.1l8 9.2c.6.7.9 1.6.8 2.5L55.6 40zm-19.8 6.5h-4.9c-.3 0-.6-.1-.7-.3s-.3-.5-.3-.8l.4-4.9c0-.5.5-.9 1-.9h4.9c.3 0 .6.1.7.3s.3.5.3.8l-.4 4.9c0 .5-.5.9-1 .9zm.9-9.3h-5c-.6 0-1-.4-1-1L32 20.7c.1-.5.5-.9 1-.9h5c.6 0 1 .4 1 1l-1.4 15.5c0 .5-.4.9-.9.9z" class="st0"/></g></svg>