<?xml version="1.0" standalone="no"?>
<!DOCTYPE svg PUBLIC "-//W3C//DTD SVG 20010904//EN"
 "http://www.w3.org/TR/2001/REC-SVG-20010904/DTD/svg10.dtd">
<svg version="1.0" xmlns="http://www.w3.org/2000/svg"
 width="700.000000pt" height="700.000000pt" viewBox="0 0 700.000000 700.000000"
 preserveAspectRatio="xMidYMid meet">
<metadata>
Created by potrace 1.14, written by Peter Selinger 2001-2017
</metadata>
<g transform="translate(0.000000,700.000000) scale(0.100000,-0.100000)"
fill="#000000" stroke="none">
<path d="M2883 6383 c-332 -335 -1014 -1019 -1514 -1520 -693 -695 -910 -917
-907 -933 2 -11 95 -112 207 -225 l204 -204 -204 -206 c-112 -113 -205 -214
-207 -225 -3 -15 206 -230 820 -845 453 -454 1134 -1138 1514 -1520 380 -382
697 -695 704 -695 8 0 296 285 642 632 346 348 1028 1032 1514 1520 678 680
885 892 882 908 -2 11 -95 113 -207 225 l-203 205 202 204 c112 112 207 211
212 220 7 13 -158 184 -834 862 -464 465 -1147 1151 -1519 1524 -371 374 -681
680 -689 680 -7 0 -285 -273 -617 -607z m1256 -123 c350 -351 1013 -1017 1474
-1479 460 -462 837 -843 837 -848 0 -4 -664 -674 -1475 -1488 l-1475 -1480
-1478 1484 -1479 1485 951 954 c523 524 1187 1191 1476 1482 289 291 527 529
529 530 2 0 290 -288 640 -640z"/>
<path d="M2942 5528 c-1133 -1135 -1572 -1581 -1572 -1597 0 -9 477 -495 1059
-1080 833 -837 1063 -1062 1077 -1057 26 8 2118 2114 2122 2135 3 18 -245 272
-1486 1514 -345 345 -634 627 -642 627 -9 0 -259 -244 -558 -542z m1124 -1025
c310 -313 564 -570 564 -573 0 -3 -254 -259 -565 -570 l-565 -565 -567 568
-567 567 47 48 c26 26 280 282 565 569 284 287 519 522 521 522 1 1 257 -254
567 -566z"/>
<path d="M3335 4090 c-141 -141 -148 -150 -136 -172 18 -34 285 -298 301 -298
21 0 312 297 308 314 -5 24 -289 306 -307 306 -9 0 -83 -67 -166 -150z"/>
</g>
</svg>
